<svg width="466" height="477" xmlns="http://www.w3.org/2000/svg">
 <!-- Created with Method Draw - http://github.com/duopixel/Method-Draw/ -->
 <g>
  <title>background</title>
  <rect fill="#fff" id="canvas_background" height="479" width="468" y="-1" x="-1"/>
 </g>
 <g>
  <title>Layer 1</title>
  <path stroke="null" id="svg_1" fill="#000000" d="m464.046147,134.371535c2.751833,7.517289 1.834556,18.793222 1.834556,18.793222s-3.669111,1.879322 -9.172778,3.758644s-13.759167,0.939661 -22.931945,0s-22.931945,-4.698305 -22.931945,0s4.586389,3.758644 4.586389,10.336272s-6.420945,27.250171 -6.420945,35.707121s-2.751833,10.336272 -6.420945,11.275933s-14.676445,-15.974238 -14.676445,-15.974238s10.090056,-5.637967 12.841889,-11.275933s-0.917278,-5.637967 1.834556,-13.155255s3.669111,-10.336272 0,-16.9139s-11.374245,-17.289764 -11.924612,-13.155255c-0.550367,3.758644 0.917278,8.45695 5.136756,15.034577c3.669111,5.637967 -3.3022,3.758644 -3.3022,3.758644s-13.208801,-19.169086 -11.007334,-9.396611c1.834556,8.081085 3.669111,12.215594 3.669111,12.215594l-18.345556,47.922715c0,0 -10.090056,8.45695 -13.759167,20.672544s5.503667,20.672544 11.007334,21.612205s3.669111,-5.637967 3.669111,-9.396611s7.338223,-4.698305 9.172778,-11.275933s13.575712,-24.243256 19.262834,-15.034577c3.485656,5.637967 -6.971311,12.215594 -11.007334,15.598374c-3.852567,3.194848 2.751833,3.38278 2.751833,3.38278s10.640423,-6.201763 11.5577,-0.563797s-10.640423,12.215594 -10.640423,12.215594s-6.420945,3.38278 -6.420945,9.020746s-7.338223,16.9139 -16.511001,26.31051s-28.435612,39.465766 -35.773835,52.621021s-33.939279,65.776276 -36.691113,71.414243s-15.593723,11.275933 -15.593723,11.275933s2.751833,8.45695 5.503667,14.094916s4.586389,25.370849 4.586389,25.370849s-2.751833,15.22251 -97.231448,15.974238c-105.486948,0.939661 -179.786451,-77.99187 -179.786451,-77.99187s-4.586389,-15.974238 -6.420945,-23.491527s-0.917278,-93.026447 -0.917278,-109.000686s45.863891,-67.655598 45.863891,-67.655598s0.917278,-17.853561 0.917278,-24.431188s-7.338223,-15.034577 -12.841889,-17.853561s-22.014668,-15.974238 -22.014668,-24.431188s-10.090056,-15.034577 -14.676445,-31.948477s11.007334,-43.22441 22.931945,-55.440004s32.104723,-13.155255 39.442946,-15.034577s13.759167,4.698305 26.601057,3.758644s18.345556,-1.879322 34.856557,7.517289s23.849223,42.284749 23.849223,42.284749s14.676445,20.672544 20.180112,25.370849s1.834556,10.336272 1.834556,10.336272l0.917278,8.45695c0,0 4.586389,6.577628 4.586389,12.215594s-7.338223,11.275933 -7.338223,11.275933l0.917278,12.215594c0,0 3.669111,0.939661 11.924612,2.818983s17.428278,3.758644 17.428278,3.758644s-6.054034,-11.83973 11.007334,-12.215594c7.338223,-0.187932 12.841889,4.698305 12.841889,4.698305l26.234145,69.53492l6.054034,-6.201763l-76.867881,-214.242728l6.054034,-10.900069l55.953947,156.923401c0,0 9.172778,-4.698305 13.759167,-4.698305s15.593723,-0.939661 20.180112,-5.637967s22.014668,-10.336272 34.856557,-10.336272s19.262834,14.094916 19.262834,14.094916l36.691113,-7.517289c0,0 7.338223,-11.275933 12.841889,-14.094916s14.676445,3.758644 19.262834,1.879322s11.007334,-2.818983 18.345556,-0.939661s8.2555,-3.758644 13.759167,-3.758644s13.208801,3.38278 19.813201,-6.201763c2.384922,-3.38278 11.5577,0.563797 11.5577,0.563797s0.733822,6.577628 3.485656,14.094916zm-334.806402,-66.715937c0,0 -11.007334,2.443119 -15.226812,11.275933s-7.338223,14.658713 -10.090056,15.598374s-3.3022,8.45695 -4.219478,13.719052s0.550367,10.900069 -3.3022,10.900069s-6.420945,-0.563797 -5.503667,7.141424s6.054034,10.900069 6.054034,10.900069s0,2.443119 -2.384922,2.818983s-8.805867,-1.503458 -10.090056,0.939661s-1.467645,12.215594 1.467645,17.477696s4.586389,9.396611 0.917278,9.960408s-16.511001,-3.38278 -19.813201,-5.637967s-5.503667,9.396611 -2.751833,14.658713s11.007334,2.818983 15.226812,0.563797s7.338223,-5.637967 11.007334,-3.38278s27.518334,5.637967 34.489646,2.443119s17.428278,-10.336272 16.14409,-17.853561s-11.5577,-10.900069 -11.5577,-21.612205s-1.467645,-8.45695 0.917278,-7.517289s6.054034,11.83973 13.392256,9.960408s11.007334,-1.879322 11.5577,-5.262102s4.769845,-5.450034 0.733822,-5.450034c-3.669111,0 -9.539689,-4.886238 -9.9066,-9.960408s1.467645,-16.350103 1.467645,-16.350103s-5.136756,3.194848 -6.971311,5.07417s-3.669111,4.698305 -6.971311,6.201763s-7.338223,0.939661 -9.172778,-2.443119s-2.751833,-4.322441 -6.054034,-6.577628s-3.3022,-5.637967 0.917278,-9.396611s17.428278,-14.094916 17.428278,-18.417357s-4.036022,-8.269018 -7.705134,-9.772475zm26.601057,40.969223c0,0 -3.669111,3.38278 -2.384922,8.45695s3.3022,1.879322 6.054034,0.563797s4.219478,-1.503458 2.751833,-4.322441s-1.467645,-4.322441 -2.751833,-5.637967s-3.669111,0.939661 -3.669111,0.939661zm155.01995,38.901969c0,0 -5.136756,-3.758644 -17.978645,-1.503458s-27.518334,12.779391 -27.518334,12.779391s5.136756,5.262102 11.924612,4.698305s21.647756,-5.262102 25.683779,-7.517289s7.888589,-8.45695 7.888589,-8.45695zm4.586389,30.069155c-3.3022,-2.067254 -34.856557,3.758644 -38.525668,6.201763s-9.172778,15.598374 -7.338223,19.732883s10.090056,8.081085 11.924612,6.201763s9.172778,-9.960408 14.309534,-9.960408s15.226812,0.563797 18.345556,-4.322441s4.9533,-15.410442 1.284189,-17.853561zm-139.059316,6.577628c0.733822,-4.134509 -6.971311,-4.698305 -11.5577,-6.577628s-14.676445,0.939661 -19.262834,3.38278s-13.759167,4.698305 -16.511001,3.38278s-10.640423,5.262102 -10.090056,7.517289s8.805867,-2.443119 13.392256,-1.503458s8.805867,-1.879322 12.841889,-0.563797s13.392256,4.698305 17.428278,3.758644s12.841889,-4.134509 13.759167,-9.396611zm34.856557,13.719052c-2.935289,-1.69139 -23.849223,7.517289 -28.435612,10.336272s-16.511001,11.83973 -19.262834,10.336272s-4.586389,-7.141424 -8.805867,-7.141424s-13.759167,3.758644 -21.09739,6.201763s-16.511001,5.637967 -14.309534,9.396611s18.345556,13.719052 37.241479,10.900069s29.903257,-13.53112 34.856557,-16.9139c8.2555,-5.637967 21.647756,-8.45695 22.931945,-11.275933s1.100733,-9.584543 -3.118745,-11.83973zm-132.454916,-2.818983c0,0 -7.888589,-3.758644 -8.2555,0.939661s22.014668,35.331257 28.985979,43.788207s8.438956,13.53112 8.438956,13.53112s-3.852567,-23.303595 -4.219478,-28.565697s-8.2555,-8.081085 -13.392256,-14.658713s-11.5577,-15.034577 -11.5577,-15.034577zm68.245469,-36.270918c0,0 -2.384922,6.577628 -0.550367,9.396611s10.640423,1.879322 11.924612,0s2.384922,-9.960408 1.467645,-11.275933s-11.007334,0 -12.841889,1.879322zm77.968614,141.512959c0,0 -6.420945,15.974238 -5.503667,23.115663s4.586389,6.577628 13.392256,7.517289s7.888589,2.443119 12.474978,-1.503458s12.841889,-15.974238 17.978645,-15.034577s20.730479,9.396611 23.482312,8.45695s6.420945,-5.637967 6.971311,-12.779391s-4.219478,-19.732883 -6.971311,-22.176002s-14.676445,-6.577628 -19.813201,-8.45695s-10.640423,-1.879322 -13.759167,2.818983s-13.759167,18.793222 -17.428278,18.793222s-10.823878,-0.751729 -10.823878,-0.751729zm99.983282,-68.595259c-5.870578,-1.315526 -28.068701,-1.503458 -36.691113,3.38278s-17.061367,4.322441 -15.593723,15.034577s6.420945,14.094916 9.172778,19.357018s10.640423,10.336272 11.5577,15.974238s0.917278,11.275933 4.219478,11.275933s6.054034,0.939661 11.924612,-8.45695s22.014668,-35.707121 21.647756,-40.969223s-0.183456,-14.282849 -6.237489,-15.598374zm-77.968614,21.988069c-5.136756,0 -12.841889,-2.818983 -17.978645,-4.322441s-11.924612,2.818983 -14.309534,6.201763s7.338223,6.201763 10.640423,8.081085s1.834556,4.322441 -0.917278,10.336272s2.384922,9.960408 9.172778,10.900069s11.007334,-1.503458 13.759167,-5.637967s14.676445,-10.900069 14.676445,-10.900069l-5.136756,-15.034577c0.183456,0 -4.769845,0.375864 -9.9066,0.375864zm-119.613027,0c0,0 -3.669111,5.637967 -2.384922,14.470781s34.122735,70.098717 34.122735,70.098717s1.284189,-18.229425 0,-30.069155s-5.503667,-20.672544 -9.723145,-24.431188s-15.226812,-3.194848 -15.226812,-10.712136s-6.787856,-19.357018 -6.787856,-19.357018z"/>
 </g>
</svg>