<svg version="1.1" xmlns="http://www.w3.org/2000/svg" x="0" y="0" width="1045" height="305.3" viewBox="0 0 1045 305.3" xml:space="preserve"><path d="M297.2 119.5c1.5 4 1 10 1 10s-2 1-5 2 -7.5 0.5-12.5 0 -12.5-2.5-12.5 0 2.5 2 2.5 5.5 -3.5 14.5-3.5 19 -1.5 5.5-3.5 6 -8-8.5-8-8.5 5.5-3 7-6 -0.5-3 1-7 2-5.5 0-9 -6.2-9.2-6.5-7c-0.3 2 0.5 4.5 2.8 8 2 3-1.8 2-1.8 2s-7.2-10.2-6-5c1 4.3 2 6.5 2 6.5l-10 25.5c0 0-5.5 4.5-7.5 11s3 11 6 11.5 2-3 2-5 4-2.5 5-6 7.4-12.9 10.5-8c1.9 3-3.8 6.5-6 8.3 -2.1 1.7 1.5 1.8 1.5 1.8s5.8-3.3 6.3-0.3 -5.8 6.5-5.8 6.5 -3.5 1.8-3.5 4.8 -4 9-9 14 -15.5 21-19.5 28 -18.5 35-20 38 -8.5 6-8.5 6 1.5 4.5 3 7.5 2.5 13.5 2.5 13.5 -1.5 8.1-53 8.5c-57.5 0.5-98-41.5-98-41.5s-2.5-8.5-3.5-12.5 -0.5-49.5-0.5-58 25-36 25-36 0.5-9.5 0.5-13 -4-8-7-9.5 -12-8.5-12-13 -5.5-8-8-17 6-23 12.5-29.5 17.5-7 21.5-8 7.5 2.5 14.5 2 10-1 19 4 13 22.5 13 22.5 8 11 11 13.5 1 5.5 1 5.5l0.5 4.5c0 0 2.5 3.5 2.5 6.5s-4 6-4 6l0.5 6.5c0 0 2 0.5 6.5 1.5s9.5 2 9.5 2 -3.3-6.3 6-6.5c4-0.1 7 2.5 7 2.5l14.3 37 3.3-3.3L141.4 53.8l3.3-5.8 30.5 83.5c0 0 5-2.5 7.5-2.5s8.5-0.5 11-3 12-5.5 19-5.5 10.5 7.5 10.5 7.5l20-4c0 0 4-6 7-7.5s8 2 10.5 1 6-1.5 10-0.5 4.5-2 7.5-2 7.2 1.8 10.8-3.3c1.3-1.8 6.3 0.3 6.3 0.3S295.7 115.5 297.2 119.5zM114.7 84c0 0-6 1.3-8.3 6s-4 7.8-5.5 8.3 -1.8 4.5-2.3 7.3 0.3 5.8-1.8 5.8 -3.5-0.3-3 3.8 3.3 5.8 3.3 5.8 0 1.3-1.3 1.5 -4.8-0.8-5.5 0.5 -0.8 6.5 0.8 9.3 2.5 5 0.5 5.3 -9-1.8-10.8-3 -3 5-1.5 7.8 6 1.5 8.3 0.3 4-3 6-1.8 15 3 18.8 1.3 9.5-5.5 8.8-9.5 -6.3-5.8-6.3-11.5 -0.8-4.5 0.5-4 3.3 6.3 7.3 5.3 6-1 6.3-2.8 2.6-2.9 0.4-2.9c-2 0-5.2-2.6-5.4-5.3s0.8-8.7 0.8-8.7 -2.8 1.7-3.8 2.7 -2 2.5-3.8 3.3 -4 0.5-5-1.3 -1.5-2.3-3.3-3.5 -1.8-3 0.5-5 9.5-7.5 9.5-9.8S116.7 84.8 114.7 84zM129.2 105.8c0 0-2 1.8-1.3 4.5s1.8 1 3.3 0.3 2.3-0.8 1.5-2.3 -0.8-2.3-1.5-3S129.2 105.8 129.2 105.8zM213.7 126.5c0 0-2.8-2-9.8-0.8s-15 6.8-15 6.8 2.8 2.8 6.5 2.5 11.8-2.8 14-4S213.7 126.5 213.7 126.5zM216.2 142.5c-1.8-1.1-19 2-21 3.3s-5 8.3-4 10.5 5.5 4.3 6.5 3.3 5-5.3 7.8-5.3 8.3 0.3 10-2.3S218.2 143.8 216.2 142.5zM140.4 146c0.4-2.2-3.8-2.5-6.3-3.5s-8 0.5-10.5 1.8 -7.5 2.5-9 1.8 -5.8 2.8-5.5 4 4.8-1.3 7.3-0.8 4.8-1 7-0.3 7.3 2.5 9.5 2S139.9 148.8 140.4 146zM159.4 153.3c-1.6-0.9-13 4-15.5 5.5s-9 6.3-10.5 5.5 -2.5-3.8-4.8-3.8 -7.5 2-11.5 3.3 -9 3-7.8 5 10 7.3 20.3 5.8 16.3-7.2 19-9c4.5-3 11.8-4.5 12.5-6S161.7 154.5 159.4 153.3zM87.2 151.8c0 0-4.3-2-4.5 0.5s12 18.8 15.8 23.3 4.6 7.2 4.6 7.2 -2.1-12.4-2.3-15.2 -4.5-4.3-7.3-7.8S87.2 151.8 87.2 151.8zM124.4 132.5c0 0-1.3 3.5-0.3 5s5.8 1 6.5 0 1.3-5.3 0.8-6S125.4 131.5 124.4 132.5zM166.9 207.8c0 0-3.5 8.5-3 12.3s2.5 3.5 7.3 4 4.3 1.3 6.8-0.8 7-8.5 9.8-8 11.3 5 12.8 4.5 3.5-3 3.8-6.8 -2.3-10.5-3.8-11.8 -8-3.5-10.8-4.5 -5.8-1-7.5 1.5 -7.5 10-9.5 10S166.9 207.8 166.9 207.8zM221.4 171.3c-3.2-0.7-15.3-0.8-20 1.8s-9.3 2.3-8.5 8 3.5 7.5 5 10.3 5.8 5.5 6.3 8.5 0.5 6 2.3 6 3.3 0.5 6.5-4.5 12-19 11.8-21.8S224.7 172 221.4 171.3zM178.9 183c-2.8 0-7-1.5-9.8-2.3s-6.5 1.5-7.8 3.3 4 3.3 5.8 4.3 1 2.3-0.5 5.5 1.3 5.3 5 5.8 6-0.8 7.5-3 8-5.8 8-5.8l-2.8-8C184.4 182.8 181.7 183 178.9 183zM113.7 183c0 0-2 3-1.3 7.7S131 228 131 228s0.7-9.7 0-16 -3-11-5.3-13 -8.3-1.7-8.3-5.7S113.7 183 113.7 183z" fill="#FFF"/><circle cx="153.4" cy="152.8" r="148.8" style="fill:none;stroke-width:6;stroke:#FFF"/><path d="M321.3 187c0-0.6 0.7-1.3 2-2.2 1.6-0.9 3.3-2.2 5.1-4 2.7-2.7 4.8-5.2 6.2-7.4 1.5-2.2 2.9-5.3 4.2-9.3 1.3-4 2.2-9 2.8-15 0.5-6 0.8-13.7 0.8-22.9V84.3c0-17-0.1-27.4-0.4-31.3 -0.1-2.6-0.6-4.5-1.5-5.7s-2.4-2-4.7-2.5c-1.1-0.3-2.8-0.4-4.9-0.4 -0.8 0-1.2-0.3-1.2-0.9 0-0.8 0.8-1.1 2.3-1.1 1.9 0 4.2 0 6.8 0.1 2.6 0.1 4.8 0.1 6.7 0.2s2.8 0.1 2.9 0.1c0.1 0 1.1 0 2.9-0.1s3.8-0.1 6-0.2 4-0.1 5.3-0.1c1.6 0 2.3 0.4 2.3 1.1 0 0.6-0.4 0.9-1.1 0.9 -0.7 0-1.9 0.1-3.7 0.4 -1.9 0.3-3.2 1.1-4 2.4 -0.8 1.3-1.2 3.2-1.3 5.8 -0.2 3.1-0.3 13.6-0.3 31.3V119c0 13.1-0.2 22.3-0.7 27.6 -0.4 5.3-1.7 10.3-3.7 15.1 -1.6 3.6-4 7.2-7.4 10.8 -3.4 3.6-8 7.4-13.8 11.4 -3.1 2.1-5 3.3-5.7 3.6 -0.4 0.2-0.7 0.3-1 0.3C321.6 187.9 321.3 187.6 321.3 187zM384.4 105.1c0-4.1 0.6-8.3 1.8-12.6 1.2-4.3 3.1-8.6 5.8-12.9 2.7-4.3 5.9-8.1 9.6-11.4 3.7-3.3 8.4-6 14.1-8.1s11.7-3.1 18.4-3.1c9.5 0 17.9 1.8 25.4 5.5 7.4 3.7 13.4 9 17.7 16.1 4.4 7.1 6.5 15.3 6.5 24.7 0 6.8-1.2 13.3-3.7 19.4s-5.8 11.5-10.1 16c-4.3 4.5-9.6 8.1-16 10.8 -6.3 2.7-13.2 4-20.6 4 -6.6 0-12.7-1-18.2-2.9 -5.5-1.9-10.1-4.5-13.8-7.7 -3.7-3.2-6.8-6.9-9.4-11.2 -2.6-4.2-4.5-8.5-5.6-13C385 114.2 384.4 109.7 384.4 105.1zM396.6 101.8c0 7 1 13.5 3 19.4 2 5.9 4.8 10.8 8.4 14.8s7.8 7 12.8 9.2c4.9 2.2 10.3 3.3 16 3.3 1.8 0 3.6-0.1 5.5-0.4s4-0.8 6.3-1.6c2.3-0.8 4.5-1.8 6.6-3.1 2.1-1.3 4.1-3 6.1-5.2 2-2.2 3.7-4.7 5.2-7.5 1.4-2.8 2.6-6.3 3.5-10.4 0.9-4.1 1.3-8.6 1.3-13.5 0-7.2-1-13.7-3.1-19.5 -2.1-5.8-4.9-10.6-8.4-14.2 -3.5-3.7-7.6-6.5-12.1-8.5 -4.6-2-9.4-2.9-14.5-2.9 -5.4 0-10.3 0.9-14.7 2.6 -4.4 1.7-8.3 4.2-11.6 7.5 -3.3 3.3-5.8 7.5-7.6 12.6C397.5 89.3 396.6 95.2 396.6 101.8zM505 59.7c0-0.7 0.7-1.1 2.1-1.1 1.7 0 3.7 0 6 0.1 2.3 0 4.3 0.1 5.9 0.1 1.7 0 2.5 0.1 2.6 0.1 0.1 0 0.9 0 2.5-0.1 1.6 0 3.4-0.1 5.4-0.1 2 0 3.6-0.1 4.7-0.1 1.3 0 2 0.4 2 1.1 0 0.2-0.1 0.4-0.4 0.6 -0.2 0.2-0.4 0.4-0.6 0.4 -1.2 0-2.2 0.1-3.2 0.3 -1.7 0.3-2.8 1-3.4 2 -0.6 1-1 2.6-1.1 4.9 -0.1 2.6-0.1 11.6-0.1 26.9v2.6c0 0.5 0.3 0.7 0.8 0.7h53.1c0.2 0 0.3 0 0.4 0 0.1 0 0.1-0.1 0.2-0.2 0.1-0.1 0.1-0.3 0.1-0.5v-2.6c0-12.7-0.1-21.7-0.3-26.9 -0.1-2.3-0.5-4-1.2-4.9 -0.6-1-1.9-1.6-3.9-1.9 -1.3-0.2-2.8-0.3-4.4-0.3 -0.3 0-0.5-0.1-0.7-0.3 -0.2-0.2-0.3-0.4-0.3-0.7 0-0.7 0.7-1.1 2-1.1 1.6 0 3.6 0 5.9 0.1 2.3 0 4.3 0.1 6 0.1 1.7 0 2.5 0.1 2.6 0.1 0.1 0 1 0 2.6-0.1 1.6 0 3.4-0.1 5.4-0.1 2 0 3.5-0.1 4.6-0.1 1.5 0 2.2 0.4 2.2 1.1 0 0.2-0.1 0.5-0.4 0.7 -0.2 0.2-0.5 0.3-0.8 0.3 -1 0-2.1 0.1-3.2 0.3 -1.6 0.3-2.7 1-3.3 1.9 -0.6 1-1 2.6-1.1 4.8 -0.2 2.6-0.3 11.4-0.3 26.5V116c0 13.5 0.2 22.4 0.7 26.7 0.1 1.1 0.3 2 0.4 2.5 0.1 0.5 0.3 1.1 0.6 1.8s0.8 1.2 1.3 1.5c0.6 0.3 1.4 0.6 2.3 0.7 2.4 0.4 4.2 0.6 5.7 0.6 0.8 0 1.1 0.4 1.1 1.1 0 0.7-0.7 1-2.1 1 -2 0-4.3 0-6.8-0.1 -2.5-0.1-4.6-0.1-6.3-0.2 -1.7-0.1-2.6-0.1-2.7-0.1s-0.9 0-2.5 0.1c-1.6 0.1-3.4 0.1-5.4 0.2s-3.5 0.1-4.6 0.1c-1.4 0-2.1-0.3-2.1-1 0-0.7 0.4-1.1 1.1-1.1 1 0 2.2-0.2 3.8-0.6 1.2-0.2 2-0.9 2.4-1.9 0.4-1 0.8-2.6 1-4.7 0.4-3.4 0.6-12.1 0.6-26.2V104c0-0.5-0.2-0.7-0.7-0.7h-53.1c-0.5 0-0.8 0.2-0.8 0.7v12.3c0 14.2 0.2 23 0.6 26.4 0.2 2.1 0.6 3.7 1.2 4.7s1.7 1.6 3.4 1.8c2.5 0.4 4.5 0.6 5.8 0.6 0.7 0 1 0.4 1 1.1 0 0.7-0.7 1-2 1 -2.1 0-4.4 0-6.9-0.1 -2.5-0.1-4.7-0.1-6.3-0.2 -1.7-0.1-2.5-0.1-2.6-0.1 -0.1 0-1 0-2.6 0.1 -1.6 0.1-3.4 0.1-5.4 0.2s-3.6 0.1-4.7 0.1c-1.4 0-2.1-0.3-2.1-1 0-0.7 0.4-1.1 1.1-1.1 1.1 0 2.4-0.2 3.9-0.6 0.8-0.2 1.4-0.6 1.9-1.3 0.4-0.7 0.7-1.3 0.9-1.9 0.1-0.6 0.3-1.7 0.6-3.3 0.5-3.4 0.7-12.3 0.7-26.7V94.3c0-15.1-0.1-23.9-0.3-26.5 -0.1-2.3-0.5-3.9-1.2-4.9 -0.7-1-2-1.6-4-1.9 -1.3-0.2-2.8-0.3-4.4-0.3 -0.2 0-0.4-0.1-0.6-0.4C505.2 60.1 505 59.9 505 59.7zM626.1 150.8c0-0.3 0.1-0.5 0.3-0.7 0.2-0.2 0.5-0.3 0.7-0.3 1.8 0 3.6-0.2 5.2-0.7 1.6-0.4 2.6-1.7 3-3.7 0.4-2 0.7-5.9 0.7-11.7V63.1c0-4.1 0.6-6.2 1.7-6.2 0.8 0 2.5 1.3 5 3.7 0.4 0.4 2.6 2.7 6.5 6.8 3.9 4.1 9.1 9.5 15.5 16.3 6.4 6.7 12.5 13.1 18.3 19 5 5.1 11.1 11.6 18.5 19.3 7.4 7.8 11.2 11.9 11.7 12.3l-1.3-61.7c-0.1-4.1-0.4-7-1.1-8.6 -0.6-1.6-1.9-2.5-3.7-2.9 -2.1-0.4-4.2-0.6-6.2-0.6 -0.7 0-1-0.4-1-1.1 0-0.6 0.8-0.9 2.5-0.9 2.3 0 5.1 0 8.3 0.1 3.2 0.1 4.9 0.1 5 0.1 0.1 0 1.5 0 4-0.1 2.5-0.1 4.8-0.1 6.9-0.1 1.5 0 2.3 0.3 2.3 0.9 0 0.2-0.1 0.5-0.4 0.7 -0.3 0.3-0.6 0.4-1 0.4 -1.1 0-2.1 0.1-3 0.3 -2 0.4-3.2 1.3-3.8 2.7 -0.5 1.4-0.8 4.1-0.8 8l-0.3 72.2c0 2.1 0 3.7 0 4.8 0 1.1-0.1 1.9-0.1 2.6 -0.1 0.6-0.2 1-0.3 1.2 -0.1 0.1-0.3 0.2-0.5 0.2 -0.7 0-1.6-0.4-2.7-1.3 -1.2-0.9-3.5-2.9-7-6.2 -0.5-0.5-2.5-2.4-5.9-5.8 -3.4-3.4-7.8-7.7-13.2-13.1 -5.3-5.4-10-10.2-14.1-14.4 -18.4-19.3-29.5-31-33-34.9l1.4 58.2c0.1 5 0.6 8.5 1.3 10.4 0.7 2 1.9 3.1 3.7 3.6 1.9 0.5 4.1 0.7 6.4 0.7 0.7 0 1 0.4 1 1.1 0 0.7-0.8 1-2.3 1 -2.1 0-4.2 0-6.3-0.1 -2.1-0.1-3.8-0.1-5-0.2 -1.3-0.1-2-0.1-2.2-0.1 -0.2 0-1 0-2.3 0.1 -1.3 0.1-2.8 0.1-4.7 0.2 -1.9 0.1-3.6 0.1-5.3 0.1C626.8 151.8 626.1 151.4 626.1 150.8zM746.6 145.4c0-1.8 0-3.6 0.1-5.3s0.2-3.4 0.4-5.1c0.2-1.6 0.2-2.5 0.2-2.7 0-1.4 0.3-2.1 1-2.1 0.8 0 1.1 0.5 1.1 1.5 0 1.8 0.1 3.3 0.4 4.5 0.7 2.8 2.1 5.2 4.3 7.1s4.6 3.2 7.3 4c2.7 0.7 5.5 1.1 8.6 1.1 6.1 0 10.8-1.5 14.1-4.6s5-7 5-11.8c0-2.2-0.3-4.1-0.8-5.8 -0.5-1.7-1.6-3.4-3.1-5.2 -1.5-1.7-3.1-3.3-4.8-4.7 -1.7-1.4-4.2-3.3-7.4-5.7l-5.8-4.4c-6.7-5-11.4-9.5-14.1-13.6 -2.7-4.1-4.1-8.3-4.1-12.8 0-7.2 2.6-12.8 7.7-17 5.1-4.1 12-6.2 20.5-6.2 5 0 9.6 0.5 13.8 1.4 1.7 0.4 3.2 0.6 4.6 0.6 1 0 1.4 0.3 1.4 0.9l-0.2 1.6c-0.1 1-0.2 2.6-0.4 4.6 -0.1 2.1-0.2 4.3-0.2 6.8 0 1.8-0.4 2.8-1.1 2.8 -0.6 0-1-0.5-1.1-1.6 -0.2-2.2-0.9-4.2-2-6.1 -0.3-0.5-0.8-1-1.4-1.6 -0.7-0.6-1.6-1.2-2.9-2 -1.3-0.8-3-1.4-5.3-1.8 -2.2-0.5-4.7-0.7-7.5-0.7 -4.9 0-8.9 1.2-12.1 3.5 -3.2 2.4-4.8 5.6-4.8 9.8 0 3.9 1.2 7.2 3.5 10 2.3 2.8 6.7 6.4 13.1 10.8l3.6 2.4c8 5.2 13.6 10.1 16.9 14.7 3.3 4.6 4.9 9.6 4.9 15 0 8.9-4.1 15.9-12.3 21 -4.7 2.9-11.6 4.4-20.9 4.4 -7.7 0-13.9-1.1-18.5-3.3 -0.9-0.4-1.4-0.9-1.6-1.4S746.6 147.1 746.6 145.4zM820.6 105.1c0-4.1 0.6-8.3 1.8-12.6 1.2-4.3 3.1-8.6 5.8-12.9 2.7-4.3 5.9-8.1 9.6-11.4 3.7-3.3 8.4-6 14.1-8.1s11.7-3.1 18.4-3.1c9.5 0 17.9 1.8 25.4 5.5 7.4 3.7 13.4 9 17.7 16.1 4.4 7.1 6.5 15.3 6.5 24.7 0 6.8-1.2 13.3-3.7 19.4s-5.8 11.5-10.1 16c-4.3 4.5-9.6 8.1-16 10.8 -6.3 2.7-13.2 4-20.6 4 -6.6 0-12.7-1-18.2-2.9 -5.5-1.9-10.1-4.5-13.8-7.7 -3.7-3.2-6.8-6.9-9.4-11.2 -2.6-4.2-4.5-8.5-5.6-13C821.2 114.2 820.6 109.7 820.6 105.1zM832.8 101.8c0 7 1 13.5 3 19.4 2 5.9 4.8 10.8 8.4 14.8s7.8 7 12.8 9.2c4.9 2.2 10.3 3.3 16 3.3 1.8 0 3.6-0.1 5.5-0.4s4-0.8 6.3-1.6c2.3-0.8 4.5-1.8 6.6-3.1 2.1-1.3 4.1-3 6.1-5.2 2-2.2 3.7-4.7 5.2-7.5 1.4-2.8 2.6-6.3 3.5-10.4 0.9-4.1 1.3-8.6 1.3-13.5 0-7.2-1-13.7-3.1-19.5 -2.1-5.8-4.9-10.6-8.4-14.2 -3.5-3.7-7.6-6.5-12.1-8.5 -4.6-2-9.4-2.9-14.5-2.9 -5.4 0-10.3 0.9-14.7 2.6 -4.4 1.7-8.3 4.2-11.6 7.5 -3.3 3.3-5.8 7.5-7.6 12.6C833.7 89.3 832.8 95.2 832.8 101.8zM939.6 150.8c0-0.3 0.1-0.5 0.3-0.7 0.2-0.2 0.5-0.3 0.7-0.3 1.8 0 3.6-0.2 5.2-0.7 1.6-0.4 2.6-1.7 3-3.7 0.4-2 0.7-5.9 0.7-11.7V63.1c0-4.1 0.6-6.2 1.7-6.2 0.8 0 2.5 1.3 5 3.7 0.4 0.4 2.6 2.7 6.5 6.8 3.9 4.1 9.1 9.5 15.5 16.3 6.4 6.7 12.5 13.1 18.3 19 5 5.1 11.1 11.6 18.5 19.3 7.4 7.8 11.2 11.9 11.7 12.3l-1.3-61.7c-0.1-4.1-0.4-7-1.1-8.6 -0.6-1.6-1.9-2.5-3.7-2.9 -2.1-0.4-4.2-0.6-6.2-0.6 -0.7 0-1-0.4-1-1.1 0-0.6 0.8-0.9 2.5-0.9 2.3 0 5.1 0 8.3 0.1 3.2 0.1 4.9 0.1 5 0.1 0.1 0 1.5 0 4-0.1 2.5-0.1 4.8-0.1 6.9-0.1 1.5 0 2.3 0.3 2.3 0.9 0 0.2-0.1 0.5-0.4 0.7 -0.3 0.3-0.6 0.4-1 0.4 -1.1 0-2.1 0.1-3 0.3 -2 0.4-3.2 1.3-3.8 2.7 -0.5 1.4-0.8 4.1-0.8 8l-0.3 72.2c0 2.1 0 3.7 0 4.8 0 1.1-0.1 1.9-0.1 2.6 -0.1 0.6-0.2 1-0.3 1.2 -0.1 0.1-0.3 0.2-0.5 0.2 -0.7 0-1.6-0.4-2.7-1.3 -1.2-0.9-3.5-2.9-7-6.2 -0.5-0.5-2.5-2.4-5.9-5.8 -3.4-3.4-7.8-7.7-13.2-13.1 -5.3-5.4-10-10.2-14.1-14.4 -18.4-19.3-29.5-31-33-34.9l1.4 58.2c0.1 5 0.6 8.5 1.3 10.4 0.7 2 1.9 3.1 3.7 3.6 1.9 0.5 4.1 0.7 6.4 0.7 0.7 0 1 0.4 1 1.1 0 0.7-0.8 1-2.3 1 -2.1 0-4.2 0-6.3-0.1 -2.1-0.1-3.8-0.1-5-0.2 -1.3-0.1-2-0.1-2.2-0.1 -0.2 0-1 0-2.3 0.1 -1.3 0.1-2.8 0.1-4.7 0.2 -1.9 0.1-3.6 0.1-5.3 0.1C940.3 151.8 939.6 151.4 939.6 150.8z" fill="#FFF"/><path d="M320.7 244.2c0-1.1 0.1-3.5 0.3-7.1 0.1-0.7 0.2-1.1 0.5-1.1 0.3 0 0.5 0.2 0.5 0.7 0 1 0.1 1.9 0.2 2.5 0.5 2.4 1.6 4.1 3.5 5.2 1.8 1.1 4 1.7 6.4 1.7 2.1 0 3.8-0.5 5.3-1.4 1.5-0.9 2.6-2 3.3-3.3 0.7-1.3 1-2.7 1-4.2 0-2.3-0.6-4.3-1.7-5.9s-3.1-3.7-6.1-6.2l-3-2.5c-3.3-2.8-5.6-5.3-6.9-7.5 -1.2-2.2-1.8-4.6-1.8-7.1 0-3.6 1.3-6.5 3.8-8.7 2.5-2.2 5.9-3.3 10.2-3.3 2.2 0 4.3 0.2 6.3 0.7 1.1 0.2 1.9 0.3 2.4 0.3 0.4 0 0.7 0.1 0.7 0.4 0 0 0 0.3-0.1 0.9 0 0.6-0.1 1.4-0.1 2.5 0 1.1-0.1 2.4-0.1 3.7 0 1-0.2 1.5-0.5 1.5 -0.3 0-0.5-0.3-0.5-0.9 0-0.4-0.2-1-0.3-1.8 -0.2-0.7-0.4-1.3-0.6-1.6 -0.1-0.2-0.3-0.4-0.4-0.7 -0.2-0.2-0.5-0.5-0.9-0.9s-1-0.7-1.5-1c-0.6-0.3-1.4-0.5-2.3-0.7 -1-0.2-2.1-0.3-3.2-0.3 -2.4 0-4.4 0.7-6 2.1 -1.6 1.4-2.4 3.3-2.4 5.7 0 1.9 0.6 3.7 1.7 5.2 1.1 1.5 3.3 3.6 6.6 6.1l1.9 1.5c3.8 3 6.5 5.6 7.9 8 1.4 2.4 2.1 5 2.1 7.8 0 1.8-0.4 3.7-1.3 5.8s-2.4 3.8-4.5 5.3c-2.7 1.9-6.2 2.8-10.3 2.8 -3.6 0-6.6-0.6-9.1-1.8 -0.5-0.2-0.7-0.5-0.8-0.7C320.8 245.7 320.7 245.1 320.7 244.2zM353.7 210.9c0-0.2 0.2-1.3 0.6-3.2 0.4-1.9 0.6-2.9 0.6-2.9 0.3-0.7 0.5-1 0.6-1 0.1 0 0.4 0.1 0.9 0.3 0.5 0.2 1.1 0.3 1.7 0.4 1.5 0.2 3 0.3 4.6 0.3h22.3c1.5 0 3-0.1 4.2-0.3 0.2 0 0.5-0.1 0.8-0.1 0.3 0 0.5-0.1 0.6-0.1 0.1 0 0.2 0 0.3 0 0.2 0 0.3 0.2 0.3 0.7 0 0.7 0 1.9-0.1 3.6 -0.1 1.8-0.1 2.7-0.1 2.8 0 0.2-0.1 0.4-0.2 0.6s-0.2 0.2-0.4 0.2c-0.3 0-0.4-0.3-0.5-1l-0.1-0.6c-0.1-1-0.7-1.8-1.7-2.3 -1-0.5-2.8-0.8-5.4-0.9l-7.4-0.1v24c0 6.7 0.1 10.8 0.3 12.4 0.1 1 0.3 1.7 0.6 2.1 0.3 0.5 0.8 0.8 1.7 0.9 1.1 0.2 2 0.3 2.7 0.3 0.3 0 0.5 0.2 0.5 0.5 0 0.3-0.3 0.4-0.9 0.4 -0.9 0-2 0-3.1 0 -1.2 0-2.1-0.1-2.9-0.1 -0.8 0-1.2 0-1.2 0s-0.5 0-1.2 0c-0.8 0-1.7 0.1-2.7 0.1 -1 0-1.7 0-2.2 0 -0.6 0-0.9-0.1-0.9-0.4 0-0.3 0.2-0.4 0.5-0.4 0.4 0 0.9-0.1 1.7-0.3 0.6-0.1 1-0.4 1.2-0.9s0.4-1.2 0.5-2.1c0.2-1.6 0.3-5.7 0.3-12.4v-24l-8.5 0.1c-1.9 0-3.2 0.2-4.1 0.4s-1.5 0.7-1.9 1.4c-0.2 0.3-0.4 0.6-0.5 0.8 -0.1 0.2-0.2 0.4-0.3 0.6 -0.1 0.2-0.1 0.3-0.2 0.4 -0.1 0.4-0.3 0.5-0.6 0.5 -0.1 0-0.2 0-0.3-0.1C353.8 211.2 353.7 211 353.7 210.9zM398.5 205c0-0.3 0.3-0.5 0.9-0.5 0.8 0 1.7 0 2.8 0 1.1 0 2.1 0 2.9 0.1 0.8 0 1.2 0 1.3 0 0.1 0 1.2 0 3.2-0.1 2.1 0 3.4-0.1 4.1-0.1 5 0 8.6 0.8 11 2.5 1 0.7 1.9 1.8 2.8 3.1 0.9 1.4 1.3 2.9 1.3 4.6 0 2.2-0.6 4.4-1.7 6.5 -1.1 2.1-3 4.3-5.6 6.5 5.9 7.4 10 12.3 12.3 14.7 2.3 2.4 4.5 3.7 6.6 4 0.8 0.1 1.5 0.2 2.1 0.2 0.2 0 0.3 0.1 0.4 0.2s0.2 0.2 0.2 0.3c0 0.3-0.5 0.5-1.4 0.5h-3.7c-1.6 0-2.9-0.1-3.8-0.3 -0.9-0.2-1.7-0.5-2.5-0.9 -1.2-0.6-2.3-1.5-3.4-2.7 -1.1-1.2-2.7-3.1-4.7-5.7 -0.9-1.1-2.1-2.7-3.6-4.6 -1.5-2-2.4-3.2-2.8-3.7 -0.2-0.2-0.5-0.3-0.8-0.3l-7.5-0.1c-0.3 0-0.4 0.2-0.4 0.5v1.3c0 6.6 0.1 10.7 0.3 12.3 0.1 0.9 0.3 1.6 0.6 2.1 0.3 0.5 0.9 0.8 1.7 0.9 1.1 0.2 2 0.3 2.6 0.3 0.3 0 0.5 0.2 0.5 0.5 0 0.3-0.3 0.5-0.9 0.5 -0.9 0-2 0-3.1 0 -1.2 0-2.1-0.1-2.9-0.1 -0.8 0-1.2 0-1.2 0h-0.4c-0.3 0-0.7 0-1.1 0.1s-0.9 0-1.4 0.1 -1 0-1.5 0c-0.5 0-1 0-1.3 0 -0.6 0-0.9-0.2-0.9-0.5 0-0.3 0.2-0.5 0.5-0.5 0.5 0 1.1-0.1 1.8-0.3 0.4-0.1 0.7-0.3 0.9-0.6 0.2-0.3 0.3-0.6 0.4-0.9 0.1-0.3 0.2-0.8 0.3-1.5 0.2-1.6 0.3-5.7 0.3-12.3v-10c0-7 0-11.1-0.1-12.3 -0.1-1-0.3-1.8-0.6-2.3 -0.3-0.5-0.9-0.8-1.8-0.9 -0.6-0.1-1.3-0.1-2-0.1 -0.1 0-0.2-0.1-0.3-0.2S398.5 205 398.5 205zM408.6 225.8c0 0.3 0.1 0.5 0.4 0.7 0.4 0.2 1.3 0.4 2.6 0.6 1.3 0.2 2.6 0.3 3.9 0.3 1.9 0 3.4-0.3 4.4-1 1-0.7 1.9-1.8 2.6-3.3s1-3.3 1-5.4c0-3.5-0.9-6.3-2.7-8.3 -1.8-2-4.3-3-7.5-3 -1.8 0-3.2 0.1-4.2 0.3 -0.3 0.2-0.5 0.4-0.5 0.7V225.8zM444.3 205c0-0.3 0.3-0.5 0.9-0.5 0.6 0 1.3 0 2.3 0 0.9 0 1.8 0 2.5 0.1 0.7 0 1.1 0 1.2 0 0 0 0.4 0 1.2 0 0.7 0 1.6 0 2.5-0.1 0.9 0 1.7 0 2.2 0 0.6 0 0.9 0.2 0.9 0.5 0 0.1-0.1 0.2-0.2 0.3s-0.2 0.2-0.3 0.2c-0.5 0-1 0-1.5 0.1 -0.8 0.2-1.3 0.5-1.6 0.9 -0.3 0.4-0.5 1.2-0.5 2.2 0 1.2-0.1 5.3-0.1 12.3v10c0 6.7 0.1 10.8 0.3 12.3 0.1 1 0.3 1.7 0.6 2.2 0.3 0.5 0.8 0.7 1.6 0.9 1.2 0.2 2.1 0.3 2.7 0.3 0.3 0 0.5 0.2 0.5 0.5 0 0.3-0.3 0.5-0.9 0.5 -1 0-2 0-3.2 0 -1.2 0-2.2-0.1-3-0.1 -0.8 0-1.2 0-1.2 0 -0.1 0-0.5 0-1.2 0 -0.7 0-1.6 0.1-2.5 0.1 -0.9 0-1.6 0-2.2 0 -0.6 0-0.9-0.2-0.9-0.5 0-0.3 0.2-0.5 0.5-0.5 0.5 0 1.1-0.1 1.8-0.3 0.5-0.1 0.9-0.4 1.1-0.9 0.2-0.5 0.3-1.2 0.5-2.2 0.2-2 0.3-6.1 0.3-12.3v-10c0-7 0-11.1-0.1-12.3 -0.1-1-0.2-1.7-0.5-2.2 -0.3-0.5-0.7-0.8-1.4-0.9 -0.7-0.1-1.3-0.2-1.8-0.2 -0.1 0-0.2 0-0.3-0.1C444.3 205.2 444.3 205.1 444.3 205zM468.9 247.1c0-0.1 0-0.2 0.1-0.3 0.1-0.1 0.2-0.1 0.3-0.1 0.9 0 1.6-0.1 2.4-0.3 0.7-0.2 1.2-0.8 1.4-1.7 0.2-0.9 0.3-2.7 0.3-5.4v-32.6c0-1.9 0.3-2.9 0.8-2.9 0.4 0 1.1 0.6 2.3 1.7 0.2 0.2 1.2 1.2 3 3.1 1.8 1.9 4.2 4.4 7.2 7.5 3 3.1 5.8 6 8.5 8.8 2.3 2.4 5.1 5.4 8.5 9 3.4 3.6 5.2 5.5 5.4 5.7l-0.6-28.5c0-1.9-0.2-3.2-0.5-4 -0.3-0.7-0.9-1.2-1.7-1.3 -1-0.2-1.9-0.3-2.9-0.3 -0.3 0-0.5-0.2-0.5-0.5 0-0.3 0.4-0.4 1.1-0.4 1.1 0 2.4 0 3.8 0.1s2.3 0.1 2.3 0.1c0.1 0 0.7 0 1.8-0.1 1.2 0 2.2-0.1 3.2-0.1 0.7 0 1 0.1 1 0.4 0 0.1-0.1 0.2-0.2 0.3 -0.1 0.1-0.3 0.2-0.5 0.2 -0.5 0-1 0-1.4 0.1 -0.9 0.2-1.5 0.6-1.7 1.3 -0.2 0.6-0.4 1.9-0.4 3.7l-0.1 33.4c0 1 0 1.7 0 2.2 0 0.5 0 0.9-0.1 1.2 0 0.3-0.1 0.5-0.1 0.5s-0.1 0.1-0.2 0.1c-0.3 0-0.7-0.2-1.3-0.6 -0.5-0.4-1.6-1.4-3.2-2.8 -0.2-0.2-1.2-1.1-2.7-2.7 -1.6-1.6-3.6-3.6-6.1-6.1 -2.5-2.5-4.6-4.7-6.5-6.7 -8.5-8.9-13.6-14.3-15.3-16.2l0.7 26.9c0.1 2.3 0.3 3.9 0.6 4.8 0.3 0.9 0.9 1.5 1.7 1.7 0.9 0.2 1.9 0.3 2.9 0.3 0.3 0 0.5 0.2 0.5 0.5 0 0.3-0.3 0.5-1 0.5 -1 0-2 0-2.9 0 -1 0-1.7-0.1-2.3-0.1 -0.6 0-0.9 0-1 0 -0.1 0-0.5 0-1 0 -0.6 0-1.3 0.1-2.2 0.1 -0.9 0-1.7 0-2.5 0C469.2 247.6 468.9 247.4 468.9 247.1zM523.8 226c0-4.3 0.9-8.1 2.8-11.3 1.9-3.2 4.2-5.7 7.1-7.4 4-2.4 9.2-3.6 15.7-3.6 1.7 0 3.4 0.1 5.1 0.3s3.1 0.4 3.9 0.6c1.9 0.4 3.5 0.6 4.8 0.6 0.5 0 0.7 0.2 0.7 0.5 0 0.1 0 0.5-0.1 1.1 -0.1 0.6-0.1 1.5-0.2 2.7s-0.1 2.6-0.1 4.3c0 0.8-0.2 1.2-0.7 1.2 -0.3 0-0.4-0.3-0.4-0.9 -0.1-1.4-0.6-2.6-1.3-3.7 -0.8-1.2-2.4-2.3-4.8-3.1 -2.3-0.9-5.3-1.3-8.8-1.3 -2.3 0-4.4 0.2-6.4 0.7 -2 0.5-3.9 1.5-6 3 -1.8 1.4-3.2 3.3-4.2 5.8 -1.1 2.5-1.6 5.3-1.6 8.5 0 1.9 0.2 3.8 0.7 5.6s1 3.4 1.7 4.7c0.7 1.3 1.4 2.4 2 3.3 0.6 0.9 1.3 1.6 1.8 2.2 4.3 4 9.3 6 15.1 6 3 0 5.1-0.4 6.3-1.1 0.3-0.2 0.5-0.3 0.7-0.4s0.3-0.3 0.4-0.5c0.1-0.2 0.2-0.5 0.2-0.9v-9.9c0-2.4-0.1-3.9-0.4-4.5 -0.3-0.6-1-1-2.2-1.3 -0.6-0.1-1.3-0.1-2-0.1 -0.1 0-0.2-0.1-0.3-0.2 -0.1-0.1-0.2-0.2-0.2-0.3 0-0.3 0.3-0.5 0.9-0.5 0.8 0 1.7 0 2.8 0 1.1 0 2.1 0 2.9 0.1 0.8 0 1.2 0 1.3 0 0 0 0.4 0 1.1 0 0.7 0 1.5 0 2.5-0.1 0.9 0 1.7 0 2.2 0 0.6 0 0.9 0.2 0.9 0.5 0 0.1-0.1 0.2-0.2 0.3 -0.1 0.1-0.2 0.2-0.3 0.2 -0.5 0-1 0-1.5 0.1 -0.8 0.1-1.3 0.4-1.7 0.9 -0.3 0.5-0.5 1.2-0.6 2.3 0 1.2-0.1 3.2-0.1 5.9v6.4c0 1.3 0 2.1-0.1 2.4 -0.1 0.3-0.3 0.5-0.7 0.7 -1.7 0.9-3.7 1.5-6.1 1.9 -2.3 0.4-4.5 0.6-6.5 0.6 -8.2 0-14.6-2-19.5-6.1 -2-1.6-3.6-3.9-5-6.8S523.8 229.4 523.8 226zM599.6 197.4c0-0.3 0.4-0.5 1.1-0.5 0.7 0 1.5 0 2.6 0 1.1 0 2 0.1 2.8 0.1 0.8 0 1.3 0 1.3 0s0.5 0 1.3 0c0.8 0 1.7-0.1 2.8-0.1 1 0 1.8 0 2.4 0 0.7 0 1.1 0.2 1.1 0.5 0 0.3-0.2 0.4-0.5 0.4 -0.3 0-0.9 0.1-1.7 0.2 -0.9 0.2-1.5 0.5-1.8 1.1 -0.3 0.6-0.6 1.5-0.6 2.7 -0.1 1.4-0.1 6.3-0.1 14.5v11.8c0 7.8 0.1 12.7 0.3 14.6 0.1 1.1 0.3 2 0.7 2.6s1 1 1.9 1.1c1.3 0.2 2.3 0.3 3 0.3 0.3 0 0.5 0.1 0.5 0.4 0 0.3-0.4 0.5-1.1 0.5 -1.1 0-2.3 0-3.6 0 -1.3 0-2.4-0.1-3.3-0.1 -0.9 0-1.3 0-1.3 0 -0.1 0-0.5 0-1.3 0 -0.8 0-1.8 0.1-2.8 0.1 -1 0-1.8 0-2.4 0 -0.7 0-1.1-0.2-1.1-0.5 0-0.3 0.2-0.4 0.5-0.4 0.6 0 1.2-0.1 2-0.3 0.6-0.1 1-0.5 1.3-1.1 0.3-0.6 0.5-1.5 0.6-2.6 0.2-2.1 0.4-6.9 0.4-14.6v-11.8c0-7.9-0.1-12.7-0.2-14.5 -0.1-1.2-0.3-2-0.6-2.6 -0.3-0.6-0.9-1-1.6-1.1 -0.7-0.2-1.4-0.3-2.1-0.3C599.8 197.9 599.6 197.7 599.6 197.4zM626.8 247.1c0-0.1 0-0.2 0.1-0.3 0.1-0.1 0.2-0.1 0.3-0.1 0.9 0 1.6-0.1 2.4-0.3 0.7-0.2 1.2-0.8 1.4-1.7 0.2-0.9 0.3-2.7 0.3-5.4v-32.6c0-1.9 0.3-2.9 0.8-2.9 0.4 0 1.1 0.6 2.3 1.7 0.2 0.2 1.2 1.2 3 3.1 1.8 1.9 4.2 4.4 7.2 7.5 3 3.1 5.8 6 8.5 8.8 2.3 2.4 5.1 5.4 8.5 9 3.4 3.6 5.2 5.5 5.4 5.7l-0.6-28.5c0-1.9-0.2-3.2-0.5-4 -0.3-0.7-0.9-1.2-1.7-1.3 -1-0.2-1.9-0.3-2.9-0.3 -0.3 0-0.5-0.2-0.5-0.5 0-0.3 0.4-0.4 1.1-0.4 1.1 0 2.4 0 3.8 0.1s2.3 0.1 2.3 0.1c0.1 0 0.7 0 1.8-0.1 1.2 0 2.2-0.1 3.2-0.1 0.7 0 1 0.1 1 0.4 0 0.1-0.1 0.2-0.2 0.3 -0.1 0.1-0.3 0.2-0.5 0.2 -0.5 0-1 0-1.4 0.1 -0.9 0.2-1.5 0.6-1.7 1.3 -0.2 0.6-0.4 1.9-0.4 3.7l-0.1 33.4c0 1 0 1.7 0 2.2 0 0.5 0 0.9-0.1 1.2 0 0.3-0.1 0.5-0.1 0.5s-0.1 0.1-0.2 0.1c-0.3 0-0.7-0.2-1.3-0.6 -0.5-0.4-1.6-1.4-3.2-2.8 -0.2-0.2-1.2-1.1-2.7-2.7 -1.6-1.6-3.6-3.6-6.1-6.1 -2.5-2.5-4.6-4.7-6.5-6.7 -8.5-8.9-13.6-14.3-15.3-16.2l0.7 26.9c0.1 2.3 0.3 3.9 0.6 4.8 0.3 0.9 0.9 1.5 1.7 1.7 0.9 0.2 1.9 0.3 2.9 0.3 0.3 0 0.5 0.2 0.5 0.5 0 0.3-0.3 0.5-1 0.5 -1 0-2 0-2.9 0 -1 0-1.7-0.1-2.3-0.1 -0.6 0-0.9 0-1 0 -0.1 0-0.5 0-1 0 -0.6 0-1.3 0.1-2.2 0.1 -0.9 0-1.7 0-2.5 0C627.1 247.6 626.8 247.4 626.8 247.1zM682.6 244.6c0-0.8 0-1.6 0.1-2.5 0-0.8 0.1-1.6 0.2-2.3 0.1-0.8 0.1-1.2 0.1-1.2 0-0.6 0.2-0.9 0.5-0.9 0.3 0 0.5 0.2 0.5 0.7 0 0.8 0.1 1.5 0.2 2.1 0.3 1.3 1 2.4 2 3.3s2.1 1.5 3.4 1.8c1.2 0.3 2.6 0.5 4 0.5 2.8 0 5-0.7 6.5-2.1 1.5-1.4 2.3-3.2 2.3-5.4 0-1-0.1-1.9-0.4-2.7 -0.3-0.8-0.7-1.6-1.4-2.4 -0.7-0.8-1.4-1.5-2.2-2.2 -0.8-0.7-1.9-1.5-3.4-2.6l-2.7-2c-3.1-2.3-5.3-4.4-6.5-6.3s-1.9-3.9-1.9-5.9c0-3.3 1.2-5.9 3.6-7.9 2.4-1.9 5.5-2.9 9.5-2.9 2.3 0 4.4 0.2 6.4 0.7 0.8 0.2 1.5 0.3 2.1 0.3 0.4 0 0.7 0.1 0.7 0.4l-0.1 0.7c-0.1 0.5-0.1 1.2-0.2 2.1 -0.1 0.9-0.1 2-0.1 3.2 0 0.9-0.2 1.3-0.5 1.3 -0.3 0-0.5-0.3-0.5-0.8 -0.1-1-0.4-1.9-0.9-2.8 -0.1-0.2-0.4-0.5-0.7-0.7 -0.3-0.3-0.8-0.6-1.3-0.9 -0.6-0.3-1.4-0.6-2.4-0.8 -1-0.2-2.2-0.3-3.5-0.3 -2.2 0-4.1 0.5-5.6 1.6 -1.5 1.1-2.2 2.6-2.2 4.5 0 1.8 0.5 3.3 1.6 4.6 1.1 1.3 3.1 3 6.1 5l1.7 1.1c3.7 2.4 6.3 4.7 7.8 6.8 1.5 2.1 2.3 4.4 2.3 7 0 4.1-1.9 7.3-5.7 9.7 -2.2 1.4-5.4 2-9.7 2 -3.6 0-6.4-0.5-8.6-1.5 -0.4-0.2-0.7-0.4-0.8-0.6C682.6 245.9 682.6 245.4 682.6 244.6zM714.6 210.9c0-0.2 0.2-1.3 0.6-3.2 0.4-1.9 0.6-2.9 0.6-2.9 0.3-0.7 0.5-1 0.6-1 0.1 0 0.4 0.1 0.9 0.3 0.5 0.2 1.1 0.3 1.7 0.4 1.5 0.2 3 0.3 4.6 0.3H746c1.5 0 3-0.1 4.2-0.3 0.2 0 0.5-0.1 0.8-0.1 0.3 0 0.5-0.1 0.6-0.1 0.1 0 0.2 0 0.3 0 0.2 0 0.3 0.2 0.3 0.7 0 0.7 0 1.9-0.1 3.6 -0.1 1.8-0.1 2.7-0.1 2.8 0 0.2-0.1 0.4-0.2 0.6s-0.2 0.2-0.4 0.2c-0.3 0-0.4-0.3-0.5-1l-0.1-0.6c-0.1-1-0.7-1.8-1.7-2.3 -1-0.5-2.8-0.8-5.4-0.9l-7.4-0.1v24c0 6.7 0.1 10.8 0.3 12.4 0.1 1 0.3 1.7 0.6 2.1 0.3 0.5 0.8 0.8 1.7 0.9 1.1 0.2 2 0.3 2.7 0.3 0.3 0 0.5 0.2 0.5 0.5 0 0.3-0.3 0.4-0.9 0.4 -0.9 0-2 0-3.1 0 -1.2 0-2.1-0.1-2.9-0.1 -0.8 0-1.2 0-1.2 0s-0.5 0-1.2 0c-0.8 0-1.7 0.1-2.7 0.1 -1 0-1.7 0-2.2 0 -0.6 0-0.9-0.1-0.9-0.4 0-0.3 0.2-0.4 0.5-0.4 0.4 0 0.9-0.1 1.7-0.3 0.6-0.1 1-0.4 1.2-0.9s0.4-1.2 0.5-2.1c0.2-1.6 0.3-5.7 0.3-12.4v-24l-8.5 0.1c-1.9 0-3.2 0.2-4.1 0.4s-1.5 0.7-1.9 1.4c-0.2 0.3-0.4 0.6-0.5 0.8 -0.1 0.2-0.2 0.4-0.3 0.6 -0.1 0.2-0.1 0.3-0.2 0.4 -0.1 0.4-0.3 0.5-0.6 0.5 -0.1 0-0.2 0-0.3-0.1C714.7 211.2 714.6 211 714.6 210.9zM759.4 205c0-0.3 0.3-0.5 0.9-0.5 0.8 0 1.7 0 2.8 0 1.1 0 2.1 0 2.9 0.1 0.8 0 1.2 0 1.3 0 0.1 0 1.2 0 3.2-0.1 2.1 0 3.4-0.1 4.1-0.1 5 0 8.6 0.8 11 2.5 1 0.7 1.9 1.8 2.8 3.1 0.9 1.4 1.3 2.9 1.3 4.6 0 2.2-0.6 4.4-1.7 6.5 -1.1 2.1-3 4.3-5.6 6.5 5.9 7.4 10 12.3 12.3 14.7 2.3 2.4 4.5 3.7 6.6 4 0.8 0.1 1.5 0.2 2.1 0.2 0.2 0 0.3 0.1 0.4 0.2s0.2 0.2 0.2 0.3c0 0.3-0.5 0.5-1.4 0.5h-3.7c-1.6 0-2.9-0.1-3.8-0.3 -0.9-0.2-1.7-0.5-2.5-0.9 -1.2-0.6-2.3-1.5-3.4-2.7 -1.1-1.2-2.7-3.1-4.7-5.7 -0.9-1.1-2.1-2.7-3.6-4.6 -1.5-2-2.4-3.2-2.8-3.7 -0.2-0.2-0.5-0.3-0.8-0.3l-7.5-0.1c-0.3 0-0.4 0.2-0.4 0.5v1.3c0 6.6 0.1 10.7 0.3 12.3 0.1 0.9 0.3 1.6 0.6 2.1 0.3 0.5 0.9 0.8 1.7 0.9 1.1 0.2 2 0.3 2.6 0.3 0.3 0 0.5 0.2 0.5 0.5 0 0.3-0.3 0.5-0.9 0.5 -0.9 0-2 0-3.1 0 -1.2 0-2.1-0.1-2.9-0.1 -0.8 0-1.2 0-1.2 0h-0.4c-0.3 0-0.7 0-1.1 0.1s-0.9 0-1.4 0.1 -1 0-1.5 0c-0.5 0-1 0-1.3 0 -0.6 0-0.9-0.2-0.9-0.5 0-0.3 0.2-0.5 0.5-0.5 0.5 0 1.1-0.1 1.8-0.3 0.4-0.1 0.7-0.3 0.9-0.6 0.2-0.3 0.3-0.6 0.4-0.9 0.1-0.3 0.2-0.8 0.3-1.5 0.2-1.6 0.3-5.7 0.3-12.3v-10c0-7 0-11.1-0.1-12.3 -0.1-1-0.3-1.8-0.6-2.3 -0.3-0.5-0.9-0.8-1.8-0.9 -0.6-0.1-1.3-0.1-2-0.1 -0.1 0-0.2-0.1-0.3-0.2S759.4 205 759.4 205zM769.5 225.8c0 0.3 0.1 0.5 0.4 0.7 0.4 0.2 1.3 0.4 2.6 0.6 1.3 0.2 2.6 0.3 3.9 0.3 1.9 0 3.4-0.3 4.4-1 1-0.7 1.9-1.8 2.6-3.3s1-3.3 1-5.4c0-3.5-0.9-6.3-2.7-8.3 -1.8-2-4.3-3-7.5-3 -1.8 0-3.2 0.1-4.2 0.3 -0.3 0.2-0.5 0.4-0.5 0.7V225.8zM801.3 205c0-0.3 0.3-0.5 0.9-0.5 0.8 0 1.7 0 2.8 0 1.1 0 2 0 2.7 0.1 0.8 0 1.2 0 1.3 0 0.1 0 0.9 0 2.5-0.1s2.8-0.1 3.5-0.1 1.1 0.2 1.1 0.5c0 0.1-0.1 0.2-0.2 0.3 -0.1 0.1-0.2 0.1-0.4 0.1 -0.5 0-1 0-1.5 0.1 -0.7 0.1-1.3 0.4-1.6 0.9 -0.3 0.5-0.5 1.2-0.5 2.2 -0.1 1.2-0.1 5.3-0.1 12.3v8c0 3.8 0.4 6.8 1.1 8.9s1.8 3.8 3.2 5c1.4 1.2 2.7 2 4 2.5 1.3 0.4 2.9 0.6 4.8 0.6 1.8 0 3.5-0.4 5.1-1.1 1.6-0.7 3-1.7 4-2.9 1.3-1.5 2.2-3.4 2.7-5.7s0.7-5 0.7-8.2V221c0-5.2-0.1-9.3-0.2-12.3 0-1-0.2-1.7-0.5-2.2 -0.3-0.5-0.9-0.8-1.8-0.9 -0.6-0.1-1.3-0.1-2-0.1 -0.1 0-0.2 0-0.3-0.1 -0.1-0.1-0.1-0.2-0.1-0.3 0-0.3 0.3-0.5 0.9-0.5 0.8 0 1.6 0 2.7 0 1 0 1.9 0 2.6 0.1 0.7 0 1.1 0 1.1 0 0 0 0.7 0 2-0.1 1.3 0 2.3-0.1 3-0.1 0.6 0 0.9 0.2 0.9 0.5 0 0.1 0 0.2-0.1 0.3 -0.1 0.1-0.2 0.1-0.3 0.1 -0.5 0-1 0-1.5 0.1 -0.8 0.2-1.3 0.5-1.6 0.9 -0.3 0.5-0.4 1.2-0.5 2.2 0 0.6-0.1 4.7-0.1 12.3v6.1c0 3.7-0.4 7-1.2 10 -0.8 2.9-2.2 5.3-4.3 7.1 -3.2 2.8-7.3 4.2-12.4 4.2 -5.3 0-9.4-1.3-12.2-4 -1.6-1.5-2.9-3.4-3.8-5.7 -0.9-2.3-1.3-5.4-1.3-9.2V221c0-7 0-11.1-0.1-12.3 -0.1-1-0.3-1.7-0.6-2.2 -0.3-0.5-1-0.8-1.9-0.9 -0.6-0.1-1.3-0.1-2-0.1 -0.1 0-0.2-0.1-0.3-0.2C801.4 205.1 801.3 205 801.3 205zM851.1 247.1c0-0.1 0.1-0.2 0.2-0.3 0.1-0.1 0.3-0.1 0.4-0.1 0.3 0 0.9-0.1 1.7-0.2 0.2 0 0.4-0.1 0.5-0.1 0.2-0.1 0.3-0.2 0.4-0.2 0.1-0.1 0.2-0.2 0.3-0.3 0.1-0.2 0.2-0.3 0.3-0.4 0.1-0.1 0.1-0.3 0.2-0.5 0.1-0.2 0.1-0.4 0.1-0.5 0-0.1 0.1-0.3 0.1-0.6 0-0.3 0.1-0.5 0.1-0.6 0-0.1 0-0.3 0.1-0.6 0-0.3 0.1-0.5 0.1-0.7l4.3-37.2c0.1-0.7 0.3-1 0.7-1 0.5 0 0.9 0.3 1.2 0.9l18.1 35.4 17.4-35.4c0.3-0.6 0.6-0.9 1-0.9 0.4 0 0.7 0.5 0.9 1.5l4 35c0.1 0.7 0.1 1.2 0.2 1.7s0.2 1 0.4 1.7 0.5 1.2 0.9 1.6c0.4 0.4 0.9 0.8 1.5 1 1.1 0.4 2.4 0.5 3.8 0.5 0.3 0 0.5 0.1 0.5 0.4 0 0.3-0.4 0.5-1.2 0.5 -4.3 0-7.8-0.1-10.5-0.3 -1.2-0.1-1.8-0.3-1.8-0.6 0-0.2 0.1-0.4 0.4-0.5 0.2 0 0.4-0.4 0.4-1 0-0.3 0-0.6-0.1-1l-2.8-28.8h-0.2l-14.5 29.1c-0.6 1.3-1.1 2.1-1.3 2.5 -0.3 0.4-0.5 0.6-0.8 0.6s-0.5-0.2-0.8-0.5 -0.7-1-1.3-2.1c-3.3-5.8-5.6-10.2-7.1-13.2 -0.4-0.9-1.2-2.5-2.4-4.9 -1.2-2.4-2.3-4.6-3.3-6.6 -1-2-1.6-3.3-1.9-4l-0.3-0.1 -2.3 25.7c0 0.6-0.1 1.6-0.1 2.9 0 0.9 0.5 1.4 1.4 1.6 0.9 0.2 1.6 0.3 2.3 0.3 0.1 0 0.2 0 0.3 0.1 0.1 0.1 0.1 0.2 0.1 0.3 0 0.3-0.4 0.5-1.1 0.5 -0.9 0-2 0-3.3-0.1l-1.7-0.1c-0.1 0-0.7 0-1.9 0.1s-2.1 0.1-2.8 0.1C851.4 247.6 851.1 247.4 851.1 247.1zM915.5 204.9c0-0.3 0.3-0.5 0.9-0.5 0.8 0 1.7 0 2.8 0 1.1 0 2 0 2.8 0.1 0.8 0 1.2 0 1.2 0h14.1c0.4 0 1.3-0.1 2.7-0.3 0 0 0.2-0.1 0.4-0.1 0.2-0.1 0.3-0.1 0.5-0.1 0.2 0 0.3 0.2 0.3 0.5 0 0.1-0.1 0.4-0.2 0.9 -0.1 0.5-0.2 1.1-0.3 1.7 0 0.1 0 0.7-0.1 1.8 -0.1 1.1-0.2 1.8-0.2 2.1 -0.1 0.4-0.3 0.6-0.6 0.6 -0.3 0-0.5-0.2-0.5-0.7 0-0.8-0.1-1.5-0.3-2.1 -0.2-0.5-0.6-0.9-1.1-1.1s-1.6-0.5-3.1-0.7c-1-0.1-3.9-0.2-8.5-0.2 -0.2 0-0.4 0.2-0.4 0.6V223c0 0.4 0.1 0.6 0.4 0.6 5.7 0 9 0 9.9-0.1 1.5-0.1 2.5-0.4 2.9-0.8 0.5-0.5 0.8-0.7 0.9-0.7 0.2 0 0.4 0.2 0.4 0.5 0 0.1 0 0.2-0.1 0.5s-0.1 0.6-0.2 1.1 -0.1 1-0.2 1.5c-0.2 1.5-0.3 2.8-0.3 3.7 0 0.7-0.2 1.1-0.5 1.1 -0.3 0-0.4-0.2-0.4-0.6 0-0.7-0.1-1.4-0.3-1.9 -0.1-0.5-0.4-0.8-0.8-1.1 -0.4-0.3-1.2-0.5-2.2-0.6 -1.4-0.2-4.4-0.3-8.9-0.3 -0.3 0-0.4 0.1-0.4 0.4v4.8 9.8c0.1 1.9 0.5 3.2 1.4 3.8s2.7 0.9 5.6 0.9c2.9 0 4.8-0.2 5.9-0.6 0.8-0.3 1.4-0.8 1.8-1.4 0.4-0.6 0.7-1.5 0.9-2.6 0.1-0.6 0.3-0.9 0.6-0.9 0.3 0 0.4 0.3 0.4 0.9 0 0.3-0.1 1.1-0.3 2.5 -0.2 1.4-0.4 2.4-0.5 2.9 -0.2 0.7-0.5 1.1-0.9 1.2 -0.4 0.1-1.2 0.2-2.5 0.2 -2 0-5.4-0.1-10.2-0.2 -1.7-0.1-3.3-0.1-4.9-0.1 -0.8 0-1.7 0-2.5 0.1 -1.5 0.1-2.7 0.1-3.4 0.1 -0.6 0-0.9-0.2-0.9-0.5 0-0.3 0.2-0.5 0.5-0.5 0.2 0 0.5 0 1-0.1s0.7-0.1 0.8-0.1c0.4 0 0.7-0.2 0.9-0.5 0.2-0.3 0.3-0.6 0.4-0.9s0.2-0.8 0.3-1.5c0.2-1.6 0.3-5.7 0.3-12.4V221c0-7 0-11.1-0.1-12.3 -0.1-1-0.3-1.8-0.6-2.3 -0.3-0.5-0.9-0.8-1.8-0.9 -0.6-0.1-1.3-0.1-2-0.1 -0.1 0-0.2-0.1-0.3-0.2C915.5 205.1 915.5 205 915.5 204.9zM951.6 247.1c0-0.1 0-0.2 0.1-0.3 0.1-0.1 0.2-0.1 0.3-0.1 0.9 0 1.6-0.1 2.4-0.3 0.7-0.2 1.2-0.8 1.4-1.7 0.2-0.9 0.3-2.7 0.3-5.4v-32.6c0-1.9 0.3-2.9 0.8-2.9 0.4 0 1.1 0.6 2.3 1.7 0.2 0.2 1.2 1.2 3 3.1 1.8 1.9 4.2 4.4 7.2 7.5 3 3.1 5.8 6 8.5 8.8 2.3 2.4 5.1 5.4 8.5 9 3.4 3.6 5.2 5.5 5.4 5.7l-0.6-28.5c0-1.9-0.2-3.2-0.5-4 -0.3-0.7-0.9-1.2-1.7-1.3 -1-0.2-1.9-0.3-2.9-0.3 -0.3 0-0.5-0.2-0.5-0.5 0-0.3 0.4-0.4 1.1-0.4 1.1 0 2.4 0 3.8 0.1s2.3 0.1 2.3 0.1c0.1 0 0.7 0 1.8-0.1 1.2 0 2.2-0.1 3.2-0.1 0.7 0 1 0.1 1 0.4 0 0.1-0.1 0.2-0.2 0.3 -0.1 0.1-0.3 0.2-0.5 0.2 -0.5 0-1 0-1.4 0.1 -0.9 0.2-1.5 0.6-1.7 1.3 -0.2 0.6-0.4 1.9-0.4 3.7l-0.1 33.4c0 1 0 1.7 0 2.2 0 0.5 0 0.9-0.1 1.2 0 0.3-0.1 0.5-0.1 0.5s-0.1 0.1-0.2 0.1c-0.3 0-0.7-0.2-1.3-0.6 -0.5-0.4-1.6-1.4-3.2-2.8 -0.2-0.2-1.2-1.1-2.7-2.7 -1.6-1.6-3.6-3.6-6.1-6.1 -2.5-2.5-4.6-4.7-6.5-6.7 -8.5-8.9-13.6-14.3-15.3-16.2l0.7 26.9c0.1 2.3 0.3 3.9 0.6 4.8 0.3 0.9 0.9 1.5 1.7 1.7 0.9 0.2 1.9 0.3 2.9 0.3 0.3 0 0.5 0.2 0.5 0.5 0 0.3-0.3 0.5-1 0.5 -1 0-2 0-2.9 0 -1 0-1.7-0.1-2.3-0.1 -0.6 0-0.9 0-1 0 -0.1 0-0.5 0-1 0 -0.6 0-1.3 0.1-2.2 0.1 -0.9 0-1.7 0-2.5 0C951.9 247.6 951.6 247.4 951.6 247.1zM1004.3 210.9c0-0.2 0.2-1.3 0.6-3.2 0.4-1.9 0.6-2.9 0.6-2.9 0.3-0.7 0.5-1 0.6-1 0.1 0 0.4 0.1 0.9 0.3 0.5 0.2 1.1 0.3 1.7 0.4 1.5 0.2 3 0.3 4.6 0.3h22.3c1.5 0 3-0.1 4.2-0.3 0.2 0 0.5-0.1 0.8-0.1 0.3 0 0.5-0.1 0.6-0.1 0.1 0 0.2 0 0.3 0 0.2 0 0.3 0.2 0.3 0.7 0 0.7 0 1.9-0.1 3.6 -0.1 1.8-0.1 2.7-0.1 2.8 0 0.2-0.1 0.4-0.2 0.6s-0.2 0.2-0.4 0.2c-0.3 0-0.4-0.3-0.5-1l-0.1-0.6c-0.1-1-0.7-1.8-1.7-2.3 -1-0.5-2.8-0.8-5.4-0.9l-7.4-0.1v24c0 6.7 0.1 10.8 0.3 12.4 0.1 1 0.3 1.7 0.6 2.1 0.3 0.5 0.8 0.8 1.7 0.9 1.1 0.2 2 0.3 2.7 0.3 0.3 0 0.5 0.2 0.5 0.5 0 0.3-0.3 0.4-0.9 0.4 -0.9 0-2 0-3.1 0 -1.2 0-2.1-0.1-2.9-0.1 -0.8 0-1.2 0-1.2 0s-0.5 0-1.2 0c-0.8 0-1.7 0.1-2.7 0.1 -1 0-1.7 0-2.2 0 -0.6 0-0.9-0.1-0.9-0.4 0-0.3 0.2-0.4 0.5-0.4 0.4 0 0.9-0.1 1.7-0.3 0.6-0.1 1-0.4 1.2-0.9s0.4-1.2 0.5-2.1c0.2-1.6 0.3-5.7 0.3-12.4v-24l-8.5 0.1c-1.9 0-3.2 0.2-4.1 0.4s-1.5 0.7-1.9 1.4c-0.2 0.3-0.4 0.6-0.5 0.8 -0.1 0.2-0.2 0.4-0.3 0.6 -0.1 0.2-0.1 0.3-0.2 0.4 -0.1 0.4-0.3 0.5-0.6 0.5 -0.1 0-0.2 0-0.3-0.1C1004.3 211.2 1004.3 211 1004.3 210.9z" fill="#FFF"/><path d="M903.1 274.9l-3 10.5h2.5c1.8 0 3.1-0.3 3.8-0.8s1.5-1.5 2.1-3h0.7l-2.7 9.6h-0.8c0.2-0.8 0.4-1.5 0.4-2.1 0-0.6-0.1-1-0.3-1.3s-0.5-0.6-0.9-0.8 -1.2-0.2-2.5-0.2h-2.5l-2.6 8.8c-0.2 0.8-0.4 1.5-0.4 1.9 0 0.3 0.2 0.6 0.5 0.9 0.2 0.2 0.8 0.3 1.7 0.3h2.3c2.5 0 4.6-0.4 6.1-1.3s2.9-2.5 4.1-4.7h0.7l-2.5 7.4h-20.5l0.3-0.7c1 0 1.7-0.1 2.1-0.3 0.5-0.2 0.9-0.5 1.1-0.9 0.4-0.5 0.8-1.7 1.3-3.4l4.6-16c0.4-1.3 0.5-2.3 0.5-2.9 0-0.5-0.2-0.9-0.5-1.2s-1-0.4-2-0.4h-0.4l0.2-0.7h19l-1.6 6.4H913c0.1-0.6 0.1-1.1 0.1-1.5 0-0.7-0.2-1.3-0.5-1.7 -0.4-0.6-1.1-1.1-1.9-1.4 -0.6-0.2-2.1-0.4-4.3-0.4H903.1zM929.1 282.3l-1.2 6h-0.7c-0.1-1.7-0.4-3-1.1-3.8s-1.5-1.2-2.5-1.2c-0.8 0-1.4 0.2-1.9 0.7s-0.7 1-0.7 1.6c0 0.4 0.1 0.8 0.3 1.2s0.6 0.9 1.2 1.6c1.7 1.8 2.8 3.2 3.3 4.2s0.7 1.8 0.7 2.7c0 1.4-0.6 2.6-1.7 3.6s-2.5 1.6-4.3 1.6c-0.9 0-2-0.2-3.2-0.7 -0.4-0.2-0.8-0.2-1-0.2 -0.6 0-1 0.3-1.3 0.9h-0.7l1.2-6.3h0.7c0.1 2 0.5 3.4 1.2 4.2s1.8 1.2 3 1.2c1 0 1.8-0.3 2.4-0.8s0.9-1.2 0.9-2c0-0.5-0.1-1-0.3-1.4 -0.4-0.8-1.1-1.9-2.3-3.2s-1.9-2.4-2.2-3.1 -0.5-1.4-0.5-2.1c0-1.3 0.5-2.3 1.4-3.2s2.1-1.3 3.5-1.3c0.4 0 0.8 0 1.1 0.1 0.2 0 0.6 0.2 1.3 0.4s1.1 0.4 1.3 0.4c0.6 0 1-0.3 1.4-0.9H929.1zM940.5 277.5l-1.5 5.3h3.1l-0.3 1.2h-3l-3.4 11.5c-0.4 1.2-0.5 2-0.5 2.4 0 0.2 0.1 0.4 0.2 0.5s0.2 0.2 0.4 0.2c0.3 0 0.8-0.2 1.3-0.7 0.3-0.3 1-1.1 2.1-2.4l0.6 0.5c-1.2 1.7-2.3 3-3.4 3.7 -0.7 0.5-1.5 0.7-2.2 0.7 -0.6 0-1-0.2-1.4-0.5s-0.5-0.8-0.5-1.4c0-0.7 0.2-1.8 0.6-3.2l3.3-11.3h-2.9l0.2-0.8c1.4-0.4 2.6-1 3.6-1.7s2-2.1 3.2-4H940.5zM944.5 296.5c0.6 0 1 0.2 1.4 0.6s0.6 0.8 0.6 1.4 -0.2 1-0.6 1.4 -0.9 0.6-1.4 0.6 -1-0.2-1.4-0.6 -0.6-0.8-0.6-1.4 0.2-1 0.6-1.4S944 296.5 944.5 296.5zM977.9 273l-6.3 21.9c-0.4 1.3-0.5 2.2-0.5 2.8 0 0.5 0.2 0.8 0.5 1.1s1.1 0.4 2.3 0.5l-0.2 0.7h-10.1l0.3-0.7c1.1 0 1.8-0.1 2.1-0.3 0.5-0.2 1-0.5 1.2-0.9 0.4-0.6 0.9-1.7 1.3-3.2l4.5-15.7c0.3-1 0.4-1.5 0.4-1.6 0-0.3 0.1-0.5 0.1-0.8 0-0.5-0.1-0.8-0.4-1.1s-0.6-0.4-1-0.4c-0.3 0-0.9 0.1-1.6 0.2l-0.3-0.7 6.6-1.8H977.9zM982.4 300.5v-0.6c1.3-0.3 2.5-0.7 3.5-1.3 1.8-1 3.3-2.2 4.7-3.6s2.6-3.1 3.7-4.9c-0.8 0.4-1.4 0.6-1.9 0.8s-0.9 0.2-1.5 0.2c-2 0-3.5-0.7-4.5-2s-1.6-2.9-1.6-4.7c0-3.1 1-5.8 3-8s4.2-3.3 6.5-3.3c2.1 0 3.7 0.8 4.8 2.3s1.7 3.4 1.7 5.5c0 2.6-0.6 5.3-1.8 7.8s-2.9 4.8-5 6.7 -4.3 3.2-6.6 4.1C986.1 299.9 984.4 300.3 982.4 300.5zM995.3 288.5c1.8-3.7 2.8-7.1 2.8-10 0-1.4-0.3-2.5-1-3.3s-1.5-1.2-2.4-1.2c-1.5 0-2.9 1.1-4.2 3.2s-1.9 4.7-1.9 7.7c0 1.6 0.4 2.7 1.1 3.5s1.6 1.2 2.7 1.2c0.5 0 1-0.1 1.4-0.2S994.6 288.9 995.3 288.5zM1009 273.5h13.2v0.7l-14.8 26.3 -1.6-0.7 13-23.1h-6.3c-1.7 0-2.9 0.2-3.5 0.5s-1.4 1.1-2.2 2.2h-0.8L1009 273.5zM1042.2 273v0.8c-2.2 0.5-4.4 1.6-6.5 3.3s-3.9 3.8-5.5 6.4c1.4-0.6 2.6-0.9 3.4-0.9 1.7 0 3.1 0.6 4.2 1.8s1.7 2.8 1.7 4.8c0 3.1-1 5.8-3 8s-4.2 3.3-6.5 3.3c-2.1 0-3.7-0.8-4.8-2.3s-1.6-3.4-1.6-5.4c0-2.7 0.6-5.3 1.9-7.9s2.9-4.8 5-6.7 4.3-3.2 6.6-4.1C1038.6 273.5 1040.2 273.2 1042.2 273zM1029.3 285.1c-1.9 4-2.8 7.3-2.8 10 0 1.4 0.4 2.5 1.1 3.3s1.5 1.2 2.4 1.2c1.5 0 2.9-1.1 4.2-3.3s1.9-4.7 1.9-7.6c0-1.5-0.4-2.7-1.1-3.6s-1.7-1.3-2.7-1.3c-0.5 0-0.9 0.1-1.3 0.2S1030 284.6 1029.3 285.1z" fill="#FFF"/></svg>